<svg id="visual" viewBox="0 0 900 600" width="900" height="600" xmlns="http://www.w3.org/2000/svg" xmlns:xlink="http://www.w3.org/1999/xlink" version="1.1"><path d="M0 157L13.7 149C27.3 141 54.7 125 82 138C109.3 151 136.7 193 163.8 208C191 223 218 211 245.2 185C272.3 159 299.7 119 327 122C354.3 125 381.7 171 409 174C436.3 177 463.7 137 491 127C518.3 117 545.7 137 573 152C600.3 167 627.7 177 654.8 183C682 189 709 191 736.2 173C763.3 155 790.7 117 818 104C845.3 91 872.7 103 886.3 109L900 115L900 0L886.3 0C872.7 0 845.3 0 818 0C790.7 0 763.3 0 736.2 0C709 0 682 0 654.8 0C627.7 0 600.3 0 573 0C545.7 0 518.3 0 491 0C463.7 0 436.3 0 409 0C381.7 0 354.3 0 327 0C299.7 0 272.3 0 245.2 0C218 0 191 0 163.8 0C136.7 0 109.3 0 82 0C54.7 0 27.3 0 13.7 0L0 0Z" fill="#6198ff"></path><path d="M0 205L13.7 197C27.3 189 54.7 173 82 183C109.3 193 136.7 229 163.8 255C191 281 218 297 245.2 278C272.3 259 299.7 205 327 195C354.3 185 381.7 219 409 214C436.3 209 463.7 165 491 161C518.3 157 545.7 193 573 214C600.3 235 627.7 241 654.8 247C682 253 709 259 736.2 247C763.3 235 790.7 205 818 196C845.3 187 872.7 199 886.3 205L900 211L900 113L886.3 107C872.7 101 845.3 89 818 102C790.7 115 763.3 153 736.2 171C709 189 682 187 654.8 181C627.7 175 600.3 165 573 150C545.7 135 518.3 115 491 125C463.7 135 436.3 175 409 172C381.7 169 354.3 123 327 120C299.7 117 272.3 157 245.2 183C218 209 191 221 163.8 206C136.7 191 109.3 149 82 136C54.7 123 27.3 139 13.7 147L0 155Z" fill="#4988ff"></path><path d="M0 265L13.7 259C27.3 253 54.7 241 82 244C109.3 247 136.7 265 163.8 293C191 321 218 359 245.2 344C272.3 329 299.7 261 327 240C354.3 219 381.7 245 409 245C436.3 245 463.7 219 491 217C518.3 215 545.7 237 573 257C600.3 277 627.7 295 654.8 308C682 321 709 329 736.2 318C763.3 307 790.7 277 818 263C845.3 249 872.7 251 886.3 252L900 253L900 209L886.3 203C872.7 197 845.3 185 818 194C790.7 203 763.3 233 736.2 245C709 257 682 251 654.8 245C627.7 239 600.3 233 573 212C545.7 191 518.3 155 491 159C463.7 163 436.3 207 409 212C381.7 217 354.3 183 327 193C299.7 203 272.3 257 245.2 276C218 295 191 279 163.8 253C136.7 227 109.3 191 82 181C54.7 171 27.3 187 13.7 195L0 203Z" fill="#2d77ff"></path><path d="M0 367L13.7 372C27.3 377 54.7 387 82 384C109.3 381 136.7 365 163.8 377C191 389 218 429 245.2 432C272.3 435 299.7 401 327 384C354.3 367 381.7 367 409 376C436.3 385 463.7 403 491 401C518.3 399 545.7 377 573 390C600.3 403 627.7 451 654.8 464C682 477 709 455 736.2 449C763.3 443 790.7 453 818 464C845.3 475 872.7 487 886.3 493L900 499L900 251L886.3 250C872.7 249 845.3 247 818 261C790.7 275 763.3 305 736.2 316C709 327 682 319 654.8 306C627.7 293 600.3 275 573 255C545.7 235 518.3 213 491 215C463.7 217 436.3 243 409 243C381.7 243 354.3 217 327 238C299.7 259 272.3 327 245.2 342C218 357 191 319 163.8 291C136.7 263 109.3 245 82 242C54.7 239 27.3 251 13.7 257L0 263Z" fill="#0066ff"></path><path d="M0 409L13.7 419C27.3 429 54.7 449 82 447C109.3 445 136.7 421 163.8 424C191 427 218 457 245.2 463C272.3 469 299.7 451 327 443C354.3 435 381.7 437 409 443C436.3 449 463.7 459 491 454C518.3 449 545.7 429 573 441C600.3 453 627.7 497 654.8 504C682 511 709 481 736.2 476C763.3 471 790.7 491 818 505C845.3 519 872.7 527 886.3 531L900 535L900 497L886.3 491C872.7 485 845.3 473 818 462C790.7 451 763.3 441 736.2 447C709 453 682 475 654.8 462C627.7 449 600.3 401 573 388C545.7 375 518.3 397 491 399C463.7 401 436.3 383 409 374C381.7 365 354.3 365 327 382C299.7 399 272.3 433 245.2 430C218 427 191 387 163.8 375C136.7 363 109.3 379 82 382C54.7 385 27.3 375 13.7 370L0 365Z" fill="#005de8"></path><path d="M0 499L13.7 499C27.3 499 54.7 499 82 498C109.3 497 136.7 495 163.8 498C191 501 218 509 245.2 513C272.3 517 299.7 517 327 516C354.3 515 381.7 513 409 520C436.3 527 463.7 543 491 539C518.3 535 545.7 511 573 512C600.3 513 627.7 539 654.8 544C682 549 709 533 736.2 528C763.3 523 790.7 529 818 537C845.3 545 872.7 555 886.3 560L900 565L900 533L886.3 529C872.7 525 845.3 517 818 503C790.7 489 763.3 469 736.2 474C709 479 682 509 654.8 502C627.7 495 600.3 451 573 439C545.7 427 518.3 447 491 452C463.7 457 436.3 447 409 441C381.7 435 354.3 433 327 441C299.7 449 272.3 467 245.2 461C218 455 191 425 163.8 422C136.7 419 109.3 443 82 445C54.7 447 27.3 427 13.7 417L0 407Z" fill="#0055d1"></path><path d="M0 601L13.7 601C27.3 601 54.7 601 82 601C109.3 601 136.7 601 163.8 601C191 601 218 601 245.2 601C272.3 601 299.7 601 327 601C354.3 601 381.7 601 409 601C436.3 601 463.7 601 491 601C518.3 601 545.7 601 573 601C600.3 601 627.7 601 654.8 601C682 601 709 601 736.2 601C763.3 601 790.7 601 818 601C845.3 601 872.7 601 886.3 601L900 601L900 563L886.3 558C872.7 553 845.3 543 818 535C790.7 527 763.3 521 736.2 526C709 531 682 547 654.8 542C627.7 537 600.3 511 573 510C545.7 509 518.3 533 491 537C463.7 541 436.3 525 409 518C381.7 511 354.3 513 327 514C299.7 515 272.3 515 245.2 511C218 507 191 499 163.8 496C136.7 493 109.3 495 82 496C54.7 497 27.3 497 13.7 497L0 497Z" fill="#004cbb"></path></svg>